<svg width="316" height="306" viewBox="0 0 316 306" fill="none" xmlns="http://www.w3.org/2000/svg">
<path opacity="0.18" d="M71.8896 38.2514C55.2439 44.9138 37.4535 49.5032 22.7932 59.8165C8.1329 70.1297 -2.95387 88.3894 1.8779 105.649C5.62677 119.015 18.1265 129.467 18.6937 143.354C19.1475 154.425 11.825 164.094 7.93694 174.469C0.0833855 195.431 6.87467 219.848 20.7718 237.38C34.6689 254.913 54.7025 266.577 75.2259 275.508C123.863 296.608 177.169 304.635 229.863 298.796C245.57 297.032 261.417 293.938 275.339 286.461C289.262 278.984 301.169 266.592 305.062 251.277C310.358 230.47 300.452 208.013 305.867 187.237C307.986 179.089 312.38 171.648 314.251 163.439C318.753 143.653 307.785 123.444 293.831 108.717C279.877 93.9895 262.654 82.4593 249.897 66.6799C241.058 55.753 234.581 43.0419 225.495 32.3213C207.643 11.2255 178.812 -1.22265 151.152 0.0974534C123.672 1.40208 97.8017 27.8711 71.8896 38.2514Z" fill="#CAD3D5"/>
<path d="M62.5044 278.783L63.2934 282.362C58.1677 286.08 51.6033 286.967 45.4359 288.395C39.2686 289.823 32.73 292.304 29.5483 297.775C34.1326 303.715 42.672 304.432 50.1749 304.628C110.679 306.206 171.213 306.423 231.776 305.278C250.99 304.912 270.312 304.401 289.17 300.704C290.521 300.441 292.031 300.049 292.707 298.847C293.862 296.785 291.676 294.48 289.68 293.273C283.061 289.308 275.475 287.251 267.759 287.328C264.861 287.364 261.056 287.054 260.39 284.234C260.163 283.202 260.473 282.171 260.437 281.14C260.354 278.561 258.142 276.499 255.713 275.725C253.285 274.952 250.655 275.209 248.112 275.441C200.202 280.051 151.554 276.473 103.484 274.018C95.8627 273.626 88.695 277.803 81.125 276.834C74.0192 275.936 68.878 274.544 62.5044 278.783Z" fill="url(#paint0_linear_706_102)"/>
<path d="M236.319 19.3574H79.6962C69.7228 19.3574 61.6377 27.4425 61.6377 37.416V260.028C61.6377 270.001 69.7228 278.087 79.6962 278.087H236.319C246.292 278.087 254.377 270.001 254.377 260.028V37.416C254.377 27.4425 246.292 19.3574 236.319 19.3574Z" fill="#CAD3D5"/>
<path d="M236.319 19.3574H79.6962C69.7228 19.3574 61.6377 27.4425 61.6377 37.416V260.028C61.6377 270.001 69.7228 278.087 79.6962 278.087H236.319C246.292 278.087 254.377 270.001 254.377 260.028V37.416C254.377 27.4425 246.292 19.3574 236.319 19.3574Z" fill="url(#paint1_linear_706_102)"/>
<path d="M159.836 195.463L59.395 194.828C55.587 194.808 51.9268 196.3 49.2192 198.978C46.5115 201.656 44.9782 205.299 44.9564 209.107L44.8636 223.907C44.8514 225.794 45.211 227.665 45.922 229.413C46.6329 231.162 47.6813 232.753 49.0072 234.096C50.3331 235.439 51.9106 236.508 53.6496 237.242C55.3886 237.975 57.255 238.359 59.1423 238.371V238.371L154.396 238.964C160.68 239.013 166.702 241.487 171.206 245.869L173.872 248.447L174.022 224.727L174.058 219.054L174.115 209.917C174.135 206.109 172.643 202.448 169.965 199.741C167.287 197.033 163.644 195.5 159.836 195.478V195.463Z" fill="url(#paint2_linear_706_102)"/>
<path d="M241.543 49.1128V253.759C241.54 258.009 239.851 262.084 236.846 265.089C233.841 268.094 229.766 269.783 225.516 269.786H91.5827C89.4787 269.786 87.3953 269.371 85.4515 268.566C83.5076 267.761 81.7414 266.581 80.2537 265.093C78.7659 263.606 77.5858 261.839 76.7806 259.895C75.9755 257.952 75.561 255.868 75.561 253.764V253.764V49.1128C75.5604 47.0088 75.9741 44.9252 76.7786 42.9811C77.5832 41.037 78.7628 39.2705 80.25 37.7822C81.7373 36.294 83.5031 35.1133 85.4467 34.3075C87.3903 33.5017 89.4736 33.0866 91.5775 33.0859H225.501C227.606 33.0846 229.692 33.4981 231.638 34.3028C233.584 35.1076 235.352 36.2878 236.842 37.7761C238.331 39.2644 239.513 41.0316 240.32 42.9768C241.127 44.922 241.542 47.007 241.543 49.1128V49.1128Z" fill="#CAD3D5"/>
<path opacity="0.69" d="M241.543 49.1128V253.759C241.54 258.009 239.851 262.084 236.846 265.089C233.841 268.094 229.766 269.783 225.516 269.786H91.5827C89.4787 269.786 87.3953 269.371 85.4515 268.566C83.5076 267.761 81.7414 266.581 80.2537 265.093C78.7659 263.606 77.5858 261.839 76.7806 259.895C75.9755 257.952 75.561 255.868 75.561 253.764V253.764V49.1128C75.5604 47.0088 75.9741 44.9252 76.7786 42.9811C77.5832 41.037 78.7628 39.2705 80.25 37.7822C81.7373 36.294 83.5031 35.1133 85.4467 34.3075C87.3903 33.5017 89.4736 33.0866 91.5775 33.0859H225.501C227.606 33.0846 229.692 33.4981 231.638 34.3028C233.584 35.1076 235.352 36.2878 236.842 37.7761C238.331 39.2644 239.513 41.0316 240.32 42.9768C241.127 44.922 241.542 47.007 241.543 49.1128V49.1128Z" fill="url(#paint3_linear_706_102)"/>
<path opacity="0.6" d="M158.815 57.3928C159.284 55.3302 159.753 53.2675 159.568 51.1636C157.958 52.8164 155.759 53.764 153.452 53.7986C153.178 53.7673 152.901 53.8194 152.658 53.9482C152.501 54.0961 152.381 54.2798 152.311 54.4836C152.24 54.6873 152.219 54.9052 152.25 55.1187C152.25 57.6506 152.209 60.3218 150.915 62.4927C149.62 64.6637 147.393 65.8961 145.067 66.618C139.91 68.2578 134.346 67.5411 129.009 66.716C127.787 66.5252 126.508 66.3086 125.539 65.5455C124.224 64.5141 123.775 62.6784 123.951 61.0179C124.126 59.3575 124.838 57.8053 125.498 56.2584C126.529 53.8089 127.37 51.1945 127.096 48.5595C126.823 45.9245 125.147 43.2791 122.579 42.6294C122.04 42.4651 121.467 42.4419 120.917 42.562C120.366 42.682 119.855 42.9414 119.433 43.3152C119.03 43.7661 118.718 44.2916 118.516 44.8622C116.328 50.245 114.912 55.9095 114.308 61.6883C111.327 61.4098 108.486 62.9259 105.541 63.3384C103.649 63.6066 77.4894 63.7406 75.5866 63.6117C75.5866 63.6117 75.3184 66.618 76.0249 67.5875C76.7313 68.5569 80.5679 68.5724 81.6972 69.0004C89.7364 72.0944 98.58 71.8933 107.15 72.6771C121.785 74.0127 139.374 78.6949 152.297 69.2479C156.314 66.3086 157.742 62.106 158.815 57.3928Z" fill="url(#paint4_linear_706_102)"/>
<path opacity="0.6" d="M179.008 126.642C179.261 121.727 177.796 116.875 175.816 112.368C173.836 107.861 171.345 103.602 169.375 99.0898C168.86 97.9501 168.509 96.3928 169.51 95.6554C169.819 96.4289 171.02 96.2072 171.619 95.6245C172.217 95.0418 172.65 94.2064 173.48 94.0156C174.666 95.9312 175.682 97.9465 176.517 100.039L182.375 113.446C182.999 114.879 183.654 116.359 184.835 117.38C186.666 118.958 189.357 119.108 191.704 119.051C193.26 119.009 194.811 118.854 196.345 118.587C198.062 118.288 200.006 117.793 201.017 116.328C202.564 114.059 201.089 110.837 202.048 108.253C202.5 107.181 203.23 106.248 204.162 105.551C205.353 104.587 206.993 103.834 208.385 104.478C209.076 104.865 209.657 105.423 210.072 106.098C213.681 111.13 215.698 117.298 220.065 121.676C222.576 121.649 224.984 120.677 226.81 118.953C228.574 117.277 229.904 115.204 231.281 113.209C233.653 109.785 236.247 106.505 238.84 103.267L241.635 99.755C241.713 99.6381 241.825 99.5481 241.955 99.4971C242.275 99.4146 242.471 99.822 242.564 100.147C243.595 104.886 240.47 109.486 237.118 112.982C234.54 115.679 231.585 118.283 229.77 121.475C229.62 121.738 229.524 122.028 229.486 122.328C229.449 122.628 229.471 122.933 229.551 123.225C229.632 123.516 229.769 123.789 229.955 124.028C230.141 124.267 230.373 124.466 230.636 124.615C230.925 124.779 231.245 124.879 231.575 124.909C237.691 125.425 243.951 124.223 250.108 124.971C251.969 125.198 254.151 125.894 254.455 127.859C254.513 128.356 254.449 128.859 254.269 129.326C254.09 129.793 253.799 130.21 253.423 130.54C252.114 131.788 250.329 132.036 248.597 132.247C229.089 134.645 209.406 135.341 189.77 135.985C188.996 136.056 188.216 135.991 187.465 135.795C185.835 135.279 184.887 133.608 183.964 132.185C182.587 130.108 180.918 128.241 179.008 126.642V126.642Z" fill="url(#paint5_linear_706_102)"/>
<path d="M279.109 140.987V154.064C279.118 155.724 278.801 157.368 278.175 158.905C277.548 160.441 276.626 161.839 275.459 163.019C274.293 164.199 272.905 165.137 271.376 165.781C269.847 166.425 268.206 166.761 266.547 166.77H183.205C177.69 166.752 172.387 168.898 168.437 172.747L166.096 175.011V140.977C166.089 138.292 166.934 135.675 168.509 133.501C170.084 131.327 172.309 129.709 174.862 128.879C176.097 128.482 177.386 128.281 178.683 128.281H266.552C268.211 128.291 269.852 128.627 271.381 129.271C272.91 129.914 274.297 130.853 275.463 132.033C276.629 133.213 277.551 134.611 278.176 136.147C278.802 137.684 279.119 139.328 279.109 140.987V140.987Z" fill="url(#paint6_linear_706_102)"/>
<path d="M142.953 79.1806L145.119 112.328H142.953L140.653 110.115C136.744 106.366 130.793 105.026 125.384 105.026H43.4555C40.1732 105.026 37.0254 103.722 34.7044 101.401C32.3835 99.0799 31.0796 95.9321 31.0796 92.6498L31.8479 79.1806C31.8479 75.8983 33.1518 72.7505 35.4728 70.4295C37.7937 68.1086 40.9416 66.8047 44.2239 66.8047H130.598C132.611 66.8002 134.595 67.289 136.375 68.2284C138.156 69.1678 139.68 70.5291 140.813 72.1934C142.221 74.2503 142.967 76.688 142.953 79.1806V79.1806Z" fill="url(#paint7_linear_706_102)"/>
<path d="M145.113 79.1806V112.327L142.808 110.115C138.908 106.366 133.708 104.272 128.298 104.273H46.3432C43.0609 104.273 39.913 102.969 37.5921 100.648C35.2712 98.3271 33.9673 95.1792 33.9673 91.8969V79.1806C33.9673 75.8983 35.2712 72.7505 37.5921 70.4295C39.913 68.1086 43.0609 66.8047 46.3432 66.8047H132.738C134.751 66.8011 136.734 67.2903 138.515 68.2296C140.295 69.1689 141.819 70.5297 142.953 72.1934V72.1934C144.368 74.248 145.122 76.6859 145.113 79.1806V79.1806Z" fill="white"/>
<path d="M279.109 139.925V152.636C279.109 155.918 277.805 159.066 275.484 161.387C273.163 163.708 270.015 165.012 266.733 165.012H184.82C179.408 165.013 174.207 167.106 170.304 170.854L167.983 173.051V139.925C167.983 136.651 169.28 133.511 171.59 131.192C173.9 128.872 177.034 127.562 180.308 127.549H266.748C270.028 127.553 273.172 128.859 275.49 131.179C277.807 133.5 279.109 136.645 279.109 139.925Z" fill="white"/>
<path d="M188.486 125.032C187.97 124.001 187.145 123.217 186.64 122.217C185.557 120.082 186.191 117.432 187.47 115.41C187.986 114.57 188.656 113.76 188.847 112.785C189.069 111.641 188.625 110.393 189.105 109.33C189.497 108.474 190.384 107.979 191.167 107.433C192.359 106.582 193.39 105.468 194.736 104.901C196.082 104.334 197.948 104.54 198.608 105.85C199.851 105.236 201.424 105.793 202.352 106.814C203.28 107.835 203.693 109.227 203.977 110.578C204.219 112.128 204.574 113.659 205.039 115.157C205.585 116.627 206.545 118.025 207.963 118.69C210.716 119.979 214.553 118.308 216.729 120.453C217.843 121.562 218.24 123.521 219.751 123.944C220.529 124.161 221.375 123.877 222.149 124.084C223.484 124.445 224.036 126.059 224.067 127.441C224.089 128.795 223.832 130.14 223.311 131.392C222.79 132.643 222.017 133.773 221.04 134.711C220.081 135.624 218.853 136.475 218.657 137.805C218.637 138.479 218.689 139.154 218.812 139.816C218.886 140.708 218.7 141.601 218.278 142.39C217.855 143.178 217.214 143.828 216.431 144.26C215.649 144.693 214.757 144.89 213.865 144.828C212.973 144.766 212.118 144.448 211.402 143.911C210.309 143.096 209.386 141.73 208.025 141.791C207.429 141.875 206.863 142.101 206.374 142.452C205.304 143.183 204.119 143.732 202.868 144.076C202.24 144.241 201.58 144.252 200.947 144.106C200.314 143.961 199.725 143.664 199.232 143.24C198.459 142.482 198.17 141.379 197.794 140.358C197.185 138.708 196.077 137.011 194.349 136.681C193.607 136.542 192.838 136.681 192.096 136.557C187.063 135.748 190.018 128.121 188.486 125.032Z" fill="#3F3D56"/>
<path d="M228.79 107.701C230.043 105.705 230.989 103.532 231.596 101.255C231.86 100.3 232.297 99.4021 232.885 98.6047C232.943 98.5247 233.025 98.4661 233.12 98.4379C233.215 98.4097 233.316 98.4135 233.408 98.4488C233.501 98.484 233.579 98.5487 233.63 98.6329C233.682 98.717 233.705 98.8159 233.694 98.9141L233.488 100.977C234.519 99.7804 235.742 97.5889 237.469 95.7686C237.516 95.7216 237.58 95.6953 237.647 95.6953C237.714 95.6953 237.777 95.7216 237.825 95.7686C237.858 95.8029 237.88 95.8457 237.89 95.8921C237.9 95.9385 237.897 95.9867 237.882 96.0315L236.489 99.5226C236.484 99.5402 236.482 99.5587 236.483 99.5771C236.485 99.5955 236.49 99.6134 236.499 99.6297C236.508 99.646 236.519 99.6604 236.534 99.6721C236.548 99.6839 236.564 99.6926 236.582 99.6979V99.6979C236.608 99.7056 236.635 99.7057 236.66 99.6984C236.686 99.6911 236.709 99.6766 236.726 99.6567L238.789 96.8772C239.908 96.0728 239.779 97.2537 239.676 97.5321L238.33 100.11C238.315 100.146 238.312 100.186 238.322 100.223C238.332 100.26 238.355 100.293 238.386 100.316C238.417 100.339 238.455 100.35 238.494 100.348C238.532 100.347 238.569 100.332 238.598 100.306C239.186 99.7292 239.811 99.1917 240.47 98.6975C240.551 98.6432 240.648 98.6177 240.745 98.6252C240.842 98.6328 240.934 98.6729 241.006 98.7391C241.077 98.8053 241.125 98.8937 241.14 98.9901C241.155 99.0864 241.137 99.185 241.089 99.2699L239.026 102.152C238.779 102.498 238.567 102.699 238.99 102.668L240.475 102.122C240.919 101.946 240.707 102.962 240.321 103.235C238.16 104.782 237.283 105.989 235.788 107.273C234.293 108.557 224.696 124.383 220.318 129.993C218.725 132.03 215.677 133.386 214.445 130.107C213.522 127.621 216.353 125.295 217.714 123.496C221.619 118.398 225.311 113.133 228.79 107.701Z" fill="url(#paint8_linear_706_102)"/>
<path d="M161.914 195.463L61.4731 194.828C57.6651 194.808 54.0049 196.3 51.2973 198.978C48.5897 201.656 47.0563 205.299 47.0345 209.107L46.9417 223.907C46.9295 225.794 47.2891 227.665 48.0001 229.413C48.711 231.162 49.7594 232.753 51.0853 234.096C52.4112 235.439 53.9887 236.508 55.7277 237.242C57.4667 237.975 59.3331 238.359 61.2204 238.371V238.371L156.458 238.964C162.751 239.006 168.784 241.48 173.295 245.869L175.961 248.447L176.11 224.727L176.146 219.054L176.203 209.917C176.224 206.109 174.731 202.448 172.053 199.741C169.376 197.033 165.732 195.5 161.924 195.478L161.914 195.463Z" fill="white"/>
<path d="M144.232 26.1797H176.935C177.345 26.1797 177.739 26.3427 178.029 26.6328C178.319 26.9229 178.482 27.3164 178.482 27.7267V27.7267C178.482 28.137 178.319 28.5304 178.029 28.8206C177.739 29.1107 177.345 29.2737 176.935 29.2737H144.232C143.821 29.2737 143.428 29.1107 143.138 28.8206C142.848 28.5304 142.685 28.137 142.685 27.7267V27.7267C142.685 27.3164 142.848 26.9229 143.138 26.6328C143.428 26.3427 143.821 26.1797 144.232 26.1797V26.1797Z" fill="url(#paint9_linear_706_102)"/>
<path d="M143.995 79.9948C141.272 81.1705 140.792 80.9849 137.879 81.4954C134.965 82.0059 132.686 81.6346 129.912 80.5981C128.009 86.4045 125.988 92.7472 125.472 98.832C125.302 100.663 125.008 102.481 124.59 104.272H107.058C107.006 103.88 106.96 103.478 106.918 103.06C106.456 97.4581 106.52 91.8248 107.109 86.2343C107.157 85.8924 107.186 85.5481 107.197 85.203C107.21 84.9214 107.189 84.6392 107.135 84.3625C106.985 83.7674 106.737 83.2012 106.403 82.6866C105.707 81.4645 104.026 79.5926 103.092 78.2364C102.968 78.0508 102.855 77.8754 102.762 77.7207C103.324 75.1424 105.805 73.879 106.96 71.5328C107.816 69.7384 109.032 68.1393 110.533 66.8351C111.017 66.4275 111.535 66.0618 112.08 65.7419C114.06 64.5919 116.345 64.133 118.624 63.7875C118.98 63.7308 119.33 63.6792 119.686 63.6328C121.147 64.6998 122.887 65.3196 124.693 65.417C125.263 65.4047 125.831 65.4654 126.385 65.5975C126.854 65.7763 127.292 66.0268 127.684 66.34L128.375 66.8557C129.644 67.7581 130.912 68.6708 132.181 69.5784C133.061 70.2474 133.997 70.8376 134.981 71.342C138.163 72.8477 139.477 72.7085 142.974 72.265C143.381 74.4669 143.794 77.7207 143.995 79.9948Z" fill="#CAD3D5"/>
<path d="M118.598 63.6384C117.685 64.4789 120.341 67.3821 121.305 68.1659C122.27 68.9497 123.734 68.9446 124.956 68.5836C125.771 68.3464 126.637 67.8875 126.859 67.0624C126.933 66.475 126.878 65.8786 126.699 65.3143C126.478 64.1025 126.699 62.8288 126.369 61.6325C126 60.4251 125.249 59.3702 124.229 58.6261C123.275 57.8784 120.702 55.8931 120.171 57.8784C119.593 59.9927 120.733 61.6583 118.598 63.6384Z" fill="url(#paint10_linear_706_102)"/>
<path d="M118.392 104.273H107.563C107.363 103.858 107.141 103.453 106.898 103.061C106.846 102.981 106.786 102.906 106.717 102.84C106.242 102.339 105.913 101.719 105.763 101.045C104.371 96.2417 104.598 91.1138 106.408 86.4519C106.573 85.9833 106.835 85.5547 107.176 85.1936C107.733 84.6006 108.362 84.3119 108.955 83.2187C110.126 81.0683 112.359 77.402 113.462 75.2207C113.901 79.4543 112.256 83.3785 112.431 87.6276C112.519 90.1028 112.611 92.6192 113.462 94.95C114.168 96.8737 115.283 98.6209 116.732 100.071C117.268 100.684 118.108 102.711 118.392 104.273Z" fill="url(#paint11_linear_706_102)"/>
<path d="M142.953 72.2292C142.953 72.2292 143.866 78.8864 143.83 78.5048C143.794 78.1232 156.85 74.5652 160.579 62.2047C160.863 61.7935 161.212 61.4298 161.61 61.127C166.251 57.6617 166.973 56.2024 165.586 57.0532C164.868 57.5462 163.997 57.7674 163.131 57.6772C163.643 57.247 164.117 56.7744 164.549 56.2643C165.096 55.5991 166.292 54.9132 166.586 54.1088C166.629 54.0189 166.646 53.9191 166.638 53.82C166.61 53.7275 166.552 53.6475 166.472 53.5938C166.391 53.5401 166.295 53.5161 166.199 53.5261C166.013 53.5531 165.837 53.6237 165.684 53.7323C164.984 54.1694 164.314 54.6517 163.678 55.1762C163.281 55.5011 162.187 55.9394 162.564 55.1762C163.152 53.9644 164.456 53.16 164.802 51.8605C164.831 51.7882 164.843 51.7103 164.838 51.6326C164.832 51.5549 164.81 51.4794 164.771 51.4119C164.637 51.2468 164.369 51.2984 164.173 51.4119C163.466 51.7316 161.337 54.6554 160.816 54.5883C160.295 54.5213 161.378 51.4634 161.419 50.8756C161.419 50.7157 161.419 50.5249 161.28 50.4476C161.204 50.4198 161.122 50.4163 161.044 50.4376C160.967 50.4588 160.898 50.5038 160.847 50.5662C159.485 51.6903 159.3 53.6602 158.423 55.2071C158.306 55.4684 158.094 55.6751 157.83 55.7847C157.268 55.9497 156.799 55.3103 156.226 55.1814C156.125 55.1452 156.013 55.1452 155.912 55.1814C155.597 55.3206 155.644 55.8105 155.834 56.0992C158.413 60.0286 151.848 69.4807 142.953 72.2292Z" fill="url(#paint12_linear_706_102)"/>
<path d="M104.557 78.9629C104.557 78.9629 101.85 100.755 103.923 104.272H108.424C107.502 97.2693 107.676 90.166 108.94 83.2171C108.94 83.2171 108.543 79.788 104.557 78.9629Z" fill="url(#paint13_linear_706_102)"/>
<path opacity="0.32" d="M90.5926 77.7012H43.3062C41.7057 77.7012 40.4082 78.9987 40.4082 80.5992V80.6044C40.4082 82.2049 41.7057 83.5024 43.3062 83.5024H90.5926C92.1931 83.5024 93.4906 82.2049 93.4906 80.6044V80.5992C93.4906 78.9987 92.1931 77.7012 90.5926 77.7012Z" fill="#CAD3D5"/>
<path opacity="0.32" d="M90.5926 89.5762H43.3062C41.7057 89.5762 40.4082 90.8737 40.4082 92.4742V92.4794C40.4082 94.0799 41.7057 95.3774 43.3062 95.3774H90.5926C92.1931 95.3774 93.4906 94.0799 93.4906 92.4794V92.4742C93.4906 90.8737 92.1931 89.5762 90.5926 89.5762Z" fill="#CAD3D5"/>
<path opacity="0.32" d="M268.357 142.112H221.071C220.302 142.112 219.564 141.807 219.02 141.264C218.475 140.721 218.169 139.984 218.167 139.214V139.214C218.167 138.834 218.242 138.457 218.388 138.105C218.534 137.754 218.747 137.434 219.016 137.165C219.285 136.896 219.605 136.683 219.956 136.537C220.308 136.391 220.685 136.316 221.066 136.316H268.357C268.738 136.316 269.114 136.391 269.466 136.537C269.818 136.683 270.137 136.896 270.406 137.165C270.675 137.434 270.889 137.754 271.034 138.105C271.18 138.457 271.255 138.834 271.255 139.214V139.214C271.255 139.983 270.95 140.72 270.406 141.264C269.863 141.807 269.126 142.112 268.357 142.112Z" fill="#CAD3D5"/>
<path opacity="0.32" d="M268.357 153.988H221.071C220.302 153.988 219.564 153.682 219.02 153.139C218.475 152.596 218.169 151.859 218.167 151.09V151.09C218.169 150.71 218.245 150.334 218.392 149.983C218.538 149.633 218.752 149.315 219.022 149.047C219.292 148.779 219.611 148.567 219.963 148.423C220.314 148.279 220.691 148.206 221.071 148.207H268.357C269.126 148.207 269.863 148.512 270.406 149.056C270.95 149.599 271.255 150.336 271.255 151.105V151.105C271.25 151.871 270.942 152.603 270.399 153.143C269.857 153.683 269.123 153.986 268.357 153.988V153.988Z" fill="#CAD3D5"/>
<path opacity="0.32" d="M135.198 210.133H87.9164C87.1473 210.133 86.4096 209.828 85.8653 209.285C85.321 208.741 85.0145 208.004 85.0132 207.235V207.235C85.0132 206.465 85.3191 205.727 85.8635 205.182C86.408 204.638 87.1464 204.332 87.9164 204.332H135.198C135.966 204.332 136.703 204.637 137.247 205.181C137.79 205.724 138.096 206.461 138.096 207.23C138.096 207.611 138.022 207.988 137.877 208.339C137.732 208.691 137.519 209.011 137.25 209.281C136.982 209.55 136.663 209.764 136.311 209.911C135.96 210.057 135.583 210.133 135.203 210.133H135.198Z" fill="#CAD3D5"/>
<path opacity="0.32" d="M135.202 217.584H87.9161C86.3156 217.584 85.0181 218.881 85.0181 220.482V220.487C85.0181 222.088 86.3156 223.385 87.9161 223.385H135.202C136.803 223.385 138.1 222.088 138.1 220.487V220.482C138.1 218.881 136.803 217.584 135.202 217.584Z" fill="#CAD3D5"/>
<path d="M218.002 132.143C217.658 133.118 217.074 133.99 216.306 134.681C214.867 135.995 213.042 136.821 211.624 138.156C208.478 141.116 207.957 145.845 207.627 150.15L206.477 165.012H184.82C183.267 165.013 181.719 165.186 180.204 165.528C180.483 161.54 180.723 157.552 180.926 153.564C181.308 146.072 181.323 137.831 176.548 132.04C176.053 131.57 175.711 130.96 175.569 130.292C175.507 129.524 176.027 128.843 176.517 128.23C176.548 128.199 176.569 128.168 176.6 128.132L179.787 124.238C179.948 123.978 180.16 123.753 180.409 123.576C180.659 123.399 180.942 123.273 181.241 123.207C181.766 123.24 182.258 123.473 182.618 123.857C183.845 124.974 184.964 126.205 185.959 127.533C186.614 128.359 187.253 129.194 187.934 129.998C191.147 133.794 196.051 136.465 200.681 133.422C203.862 131.268 207.176 129.316 210.603 127.58C212.199 126.805 213.836 126.117 215.507 125.517C215.409 126.316 215.837 126.966 216.368 127.58C216.939 128.161 217.441 128.807 217.863 129.503C218.059 129.913 218.172 130.356 218.196 130.81C218.22 131.263 218.154 131.716 218.002 132.143V132.143Z" fill="#CAD3D5"/>
<path d="M180.235 127.961C181.231 126.188 181.56 124.118 181.164 122.124C180.767 120.15 180.133 118.232 179.276 116.41L173.841 103.519C173.352 102.467 172.974 101.368 172.712 100.239C172.335 98.3103 172.64 96.3199 172.944 94.381C172.6 94.2824 172.231 94.3193 171.913 94.4841C171.961 95.0058 171.853 95.5302 171.601 95.9897C171.349 96.4492 170.966 96.8228 170.5 97.0624C170.021 95.1248 169.143 93.3086 167.921 91.7305C168.055 93.1709 168.155 94.6147 168.22 96.062C167.086 94.8966 165.948 93.7347 164.807 92.5762C163.925 94.1231 167.096 95.7681 166.354 97.3976L162.61 94.7007C162.337 96.5365 165.307 97.4028 165.467 99.2592L162.78 98.0061C163.347 99.3932 164.662 100.296 165.704 101.379C169.53 105.406 169.53 111.64 171.923 116.647C173.295 119.53 174.764 121.886 175.383 125.037C175.847 127.404 177.884 131.741 180.235 127.961Z" fill="url(#paint14_linear_706_102)"/>
<path d="M99.0749 156.849C101.316 156.849 103.133 155.032 103.133 152.791C103.133 150.549 101.316 148.732 99.0749 148.732C96.8335 148.732 95.0166 150.549 95.0166 152.791C95.0166 155.032 96.8335 156.849 99.0749 156.849Z" fill="#CAD3D5"/>
<path d="M111.549 156.849C113.79 156.849 115.607 155.032 115.607 152.791C115.607 150.549 113.79 148.732 111.549 148.732C109.308 148.732 107.491 150.549 107.491 152.791C107.491 155.032 109.308 156.849 111.549 156.849Z" fill="#CAD3D5"/>
<path d="M124.023 156.849C126.264 156.849 128.081 155.032 128.081 152.791C128.081 150.549 126.264 148.732 124.023 148.732C121.782 148.732 119.965 150.549 119.965 152.791C119.965 155.032 121.782 156.849 124.023 156.849Z" fill="#CAD3D5"/>
<path d="M198.866 225.701C201.108 225.701 202.925 223.884 202.925 221.642C202.925 219.401 201.108 217.584 198.866 217.584C196.625 217.584 194.808 219.401 194.808 221.642C194.808 223.884 196.625 225.701 198.866 225.701Z" fill="#CAD3D5"/>
<path d="M211.335 225.701C213.576 225.701 215.393 223.884 215.393 221.642C215.393 219.401 213.576 217.584 211.335 217.584C209.094 217.584 207.277 219.401 207.277 221.642C207.277 223.884 209.094 225.701 211.335 225.701Z" fill="#CAD3D5"/>
<path d="M223.804 225.701C226.045 225.701 227.862 223.884 227.862 221.642C227.862 219.401 226.045 217.584 223.804 217.584C221.563 217.584 219.746 219.401 219.746 221.642C219.746 223.884 221.563 225.701 223.804 225.701Z" fill="#CAD3D5"/>
<path d="M182.334 87.554C184.575 87.554 186.392 85.7371 186.392 83.4958C186.392 81.2544 184.575 79.4375 182.334 79.4375C180.093 79.4375 178.276 81.2544 178.276 83.4958C178.276 85.7371 180.093 87.554 182.334 87.554Z" fill="#CAD3D5"/>
<path d="M194.808 87.554C197.05 87.554 198.867 85.7371 198.867 83.4958C198.867 81.2544 197.05 79.4375 194.808 79.4375C192.567 79.4375 190.75 81.2544 190.75 83.4958C190.75 85.7371 192.567 87.554 194.808 87.554Z" fill="#CAD3D5"/>
<path d="M207.277 87.554C209.518 87.554 211.335 85.7371 211.335 83.4958C211.335 81.2544 209.518 79.4375 207.277 79.4375C205.036 79.4375 203.219 81.2544 203.219 83.4958C203.219 85.7371 205.036 87.554 207.277 87.554Z" fill="#CAD3D5"/>
<path d="M134.202 57.6464C133.645 59.5853 132.727 61.4932 131.175 62.803C130.111 63.6912 128.807 64.2429 127.429 64.3879C126.05 64.5329 124.66 64.2647 123.434 63.6174C122.209 62.9701 121.203 61.9728 120.546 60.7526C119.889 59.5323 119.609 58.1441 119.743 56.7646C119.743 56.6047 119.743 56.4088 119.629 56.316C119.509 56.2747 119.378 56.2747 119.258 56.316C118.5 56.3933 117.938 55.6095 117.711 54.8876C117.505 54.3415 117.453 53.7491 117.562 53.1756C117.62 52.8916 117.752 52.628 117.945 52.4116C118.138 52.1952 118.385 52.0336 118.66 51.9431C118.94 51.8652 119.239 51.8984 119.494 52.0358C119.75 52.1733 119.942 52.4043 120.032 52.6805C120.138 51.6074 120.491 50.5733 121.063 49.6587C121.642 48.467 122.423 47.3852 123.373 46.4616C124.391 45.6035 125.625 45.0403 126.94 44.8331C128.255 44.6258 129.602 44.7824 130.835 45.2859C131.93 45.7383 132.915 46.4196 133.726 47.2841C134.536 48.1485 135.152 49.1762 135.532 50.2982C135.832 51.3295 135.393 52.2216 135.192 53.2271C134.857 54.6607 134.625 56.2077 134.202 57.6464Z" fill="url(#paint15_linear_706_102)"/>
<path d="M120.393 53.6558C120.362 53.6973 120.322 53.7317 120.277 53.7566C120.231 53.7815 120.181 53.7964 120.13 53.8002C119.929 53.8002 119.877 53.5217 119.861 53.3258C119.866 52.8418 119.681 52.3754 119.346 52.0263C119.263 51.9432 119.164 51.8772 119.056 51.8323C118.948 51.7873 118.831 51.7641 118.714 51.7641C118.597 51.7641 118.481 51.7873 118.372 51.8323C118.264 51.8772 118.165 51.9432 118.082 52.0263V52.0263C117.743 49.7591 118.226 47.4453 119.444 45.5031C119.594 45.3171 119.692 45.0947 119.727 44.8586C119.727 44.5543 119.552 44.2552 119.609 43.9561C119.675 43.7393 119.806 43.5483 119.985 43.4095C120.527 42.8494 121.183 42.4131 121.909 42.1307C122.267 41.991 122.653 41.9405 123.035 41.9836C123.417 42.0267 123.782 42.1622 124.1 42.3782C125.743 41.409 127.612 40.888 129.52 40.8673C130.628 40.8431 131.731 41.0304 132.769 41.4191C134.639 42.1961 136.153 43.6432 137.012 45.4774C137.853 47.3097 138.158 49.342 137.894 51.3404C136.22 52.0976 134.315 52.1674 132.59 51.5348C130.865 50.9022 129.457 49.6177 128.669 47.9577C128.519 48.7663 128.607 49.6009 128.922 50.3607C128.293 50.0498 127.746 49.5966 127.324 49.0371C126.901 48.4776 126.615 47.8273 126.488 47.1378C126.101 46.7768 125.513 47.2358 125.193 47.6535C124.368 48.7415 123.605 50.0203 122.615 50.9537C122.169 51.286 121.759 51.6645 121.393 52.083C120.996 52.5677 120.831 53.1917 120.393 53.6558Z" fill="#3F3D56"/>
<path d="M199.98 133.634C199.8 135.073 198.459 136.311 197 136.661C196.63 136.759 196.246 136.79 195.865 136.754C193.803 136.543 192.864 133.995 192.905 131.917C192.947 129.839 193.421 127.72 192.472 125.951C192.472 125.894 192.416 125.838 192.385 125.781C191.869 124.868 190.967 124.187 190.508 123.233C190.085 122.156 189.992 120.977 190.239 119.846C190.853 115.535 194.231 104.144 200.738 108.408C202.425 109.512 203.43 111.42 204.008 113.348C206.05 120.15 201.687 120.031 199.98 133.634Z" fill="url(#paint16_linear_706_102)"/>
<path d="M198.16 109.8C199.031 110.315 199.465 111.347 199.66 112.378C200.223 115.24 199.31 118.159 198.799 121.031C198.289 123.903 198.284 127.219 200.3 129.333L200.346 129.384C201.113 130.164 202.158 130.608 203.252 130.618C204.345 130.627 205.398 130.202 206.178 129.436C206.57 129.055 206.881 128.599 207.091 128.095C207.189 127.874 207.303 127.657 207.421 127.446C208.205 126.058 209.298 124.867 210.077 123.475C210.711 122.304 211.149 121.038 211.376 119.726C211.663 118.389 211.672 117.008 211.402 115.668C210.886 113.42 209.339 111.543 207.72 109.939C206.101 108.335 204.456 106.984 202.409 106.272C200.362 105.561 197.918 105.674 196.221 107.01C195.705 107.422 194.287 109.073 195.025 109.794C195.649 110.351 197.247 109.243 198.16 109.8Z" fill="#3F3D56"/>
<path d="M105.088 78.9646L102.731 77.7012L104.438 80.0268L104.551 78.9646H105.088Z" fill="url(#paint17_linear_706_102)"/>
<path d="M129.912 80.5977C129.985 80.0057 130.28 79.4637 130.738 79.0809C131.195 78.6981 131.781 78.5031 132.376 78.535C134.687 78.468 143.649 77.2871 143.649 77.2871L143.994 80.0098C143.994 80.0098 136.069 83.3616 129.912 80.5977Z" fill="url(#paint18_linear_706_102)"/>
<path opacity="0.18" d="M142.953 72.2282V73.4349C142.953 73.4349 135.12 75.544 126.854 67.0355L126.338 65.5762C126.807 65.755 127.246 66.0055 127.638 66.3187L128.329 66.8344L132.134 69.5571C133.014 70.2261 133.951 70.8163 134.934 71.3207C138.116 72.8264 139.431 72.6872 142.927 72.2437L142.953 72.2282Z" fill="white"/>
<path opacity="0.18" d="M119.026 65.5823C119.026 65.5823 110.884 65.1853 107.017 74.4672C106.186 76.4474 104.144 78.4688 104.144 78.4688L103.072 78.2419C102.948 78.0562 102.835 77.8809 102.742 77.7262C103.304 75.1479 105.784 73.8845 106.939 71.5382C107.796 69.7438 109.012 68.1448 110.513 66.8405C110.997 66.433 111.514 66.0673 112.06 65.7473C114.04 64.5974 116.324 64.1385 118.604 63.793L119.026 65.5823Z" fill="white"/>
<path d="M218.003 132.144C217.658 133.118 217.075 133.99 216.306 134.681C214.868 135.996 213.042 136.821 211.624 138.157C208.479 141.117 207.958 145.845 207.628 150.151L206.478 165.012H190.116C190.116 165.012 199.032 146.902 201.46 142.107C203.889 137.311 211.315 134.155 211.315 134.155C217.1 129.669 218.003 132.144 218.003 132.144Z" fill="url(#paint19_linear_706_102)"/>
<path d="M197.258 136.408C197.185 136.505 197.098 136.59 197 136.661C196.63 136.758 196.246 136.79 195.865 136.753C193.803 136.542 192.864 133.995 192.905 131.917C192.947 129.838 193.715 127.832 191.993 125.213C192.895 125.868 194.091 126.275 196.711 126.445C198.603 126.548 197.469 136.135 197.258 136.408Z" fill="url(#paint20_linear_706_102)"/>
<defs>
<linearGradient id="paint0_linear_706_102" x1="163.951" y1="334.949" x2="154.659" y2="204.863" gradientUnits="userSpaceOnUse">
<stop stop-opacity="0"/>
<stop offset="0.49" stop-opacity="0.2"/>
<stop offset="0.52" stop-opacity="0.23"/>
<stop offset="0.99"/>
</linearGradient>
<linearGradient id="paint1_linear_706_102" x1="147.965" y1="499.023" x2="158.758" y2="122.485" gradientUnits="userSpaceOnUse">
<stop offset="0.01"/>
<stop offset="1" stop-opacity="0"/>
</linearGradient>
<linearGradient id="paint2_linear_706_102" x1="107.017" y1="184.989" x2="113.88" y2="273.596" gradientUnits="userSpaceOnUse">
<stop offset="0.01"/>
<stop offset="1" stop-opacity="0"/>
</linearGradient>
<linearGradient id="paint3_linear_706_102" x1="159.841" y1="417.668" x2="157.624" y2="-40.8396" gradientUnits="userSpaceOnUse">
<stop offset="0.02" stop-color="white" stop-opacity="0"/>
<stop offset="0.58" stop-color="white" stop-opacity="0.39"/>
<stop offset="0.68" stop-color="white" stop-opacity="0.68"/>
<stop offset="1" stop-color="white"/>
</linearGradient>
<linearGradient id="paint4_linear_706_102" x1="117.448" y1="39.5612" x2="118.758" y2="262.57" gradientUnits="userSpaceOnUse">
<stop stop-opacity="0"/>
<stop offset="0.99"/>
</linearGradient>
<linearGradient id="paint5_linear_706_102" x1="212.944" y1="89.6737" x2="196.829" y2="383.684" gradientUnits="userSpaceOnUse">
<stop stop-opacity="0"/>
<stop offset="0.99"/>
</linearGradient>
<linearGradient id="paint6_linear_706_102" x1="225.418" y1="105.303" x2="219.488" y2="194.219" gradientUnits="userSpaceOnUse">
<stop offset="0.01"/>
<stop offset="1" stop-opacity="0"/>
</linearGradient>
<linearGradient id="paint7_linear_706_102" x1="84.9974" y1="46.5237" x2="89.5868" y2="129.535" gradientUnits="userSpaceOnUse">
<stop offset="0.01"/>
<stop offset="1" stop-opacity="0"/>
</linearGradient>
<linearGradient id="paint8_linear_706_102" x1="214.264" y1="113.894" x2="241.146" y2="113.894" gradientUnits="userSpaceOnUse">
<stop stop-color="#ECC4D7"/>
<stop offset="0.42" stop-color="#EFD4D1"/>
<stop offset="1" stop-color="#F2EAC9"/>
</linearGradient>
<linearGradient id="paint9_linear_706_102" x1="160.583" y1="17.3206" x2="160.583" y2="66.1075" gradientUnits="userSpaceOnUse">
<stop stop-opacity="0"/>
<stop offset="0.99"/>
</linearGradient>
<linearGradient id="paint10_linear_706_102" x1="119.795" y1="61.4417" x2="126.606" y2="65.8248" gradientUnits="userSpaceOnUse">
<stop stop-color="#ECC4D7"/>
<stop offset="0.42" stop-color="#EFD4D1"/>
<stop offset="1" stop-color="#F2EAC9"/>
</linearGradient>
<linearGradient id="paint11_linear_706_102" x1="116.726" y1="89.5871" x2="76.5099" y2="97.7139" gradientUnits="userSpaceOnUse">
<stop stop-opacity="0"/>
<stop offset="0.99"/>
</linearGradient>
<linearGradient id="paint12_linear_706_102" x1="142.953" y1="64.4582" x2="166.638" y2="64.4582" gradientUnits="userSpaceOnUse">
<stop stop-color="#ECC4D7"/>
<stop offset="0.42" stop-color="#EFD4D1"/>
<stop offset="1" stop-color="#F2EAC9"/>
</linearGradient>
<linearGradient id="paint13_linear_706_102" x1="103.139" y1="91.6173" x2="108.95" y2="91.6173" gradientUnits="userSpaceOnUse">
<stop stop-color="#ECC4D7"/>
<stop offset="0.42" stop-color="#EFD4D1"/>
<stop offset="1" stop-color="#F2EAC9"/>
</linearGradient>
<linearGradient id="paint14_linear_706_102" x1="162.595" y1="110.588" x2="181.329" y2="110.588" gradientUnits="userSpaceOnUse">
<stop stop-color="#ECC4D7"/>
<stop offset="0.42" stop-color="#EFD4D1"/>
<stop offset="1" stop-color="#F2EAC9"/>
</linearGradient>
<linearGradient id="paint15_linear_706_102" x1="125.864" y1="48.1891" x2="128.329" y2="62.8907" gradientUnits="userSpaceOnUse">
<stop offset="0.2" stop-color="#ECC4D7"/>
<stop offset="0.37" stop-color="#F0DCCE"/>
<stop offset="1" stop-color="#F2EAC9"/>
</linearGradient>
<linearGradient id="paint16_linear_706_102" x1="190.105" y1="122.12" x2="204.539" y2="122.12" gradientUnits="userSpaceOnUse">
<stop stop-color="#ECC4D7"/>
<stop offset="0.42" stop-color="#EFD4D1"/>
<stop offset="1" stop-color="#F2EAC9"/>
</linearGradient>
<linearGradient id="paint17_linear_706_102" x1="104.871" y1="78.3818" x2="103.231" y2="79.0006" gradientUnits="userSpaceOnUse">
<stop stop-color="#68E1FD"/>
<stop offset="0.2" stop-color="#5DB4CF"/>
<stop offset="0.46" stop-color="#50819B"/>
<stop offset="0.69" stop-color="#475C76"/>
<stop offset="0.87" stop-color="#41455E"/>
<stop offset="0.99" stop-color="#3F3D56"/>
</linearGradient>
<linearGradient id="paint18_linear_706_102" x1="137.817" y1="76.725" x2="131.809" y2="101.317" gradientUnits="userSpaceOnUse">
<stop stop-opacity="0"/>
<stop offset="0.99"/>
</linearGradient>
<linearGradient id="paint19_linear_706_102" x1="199.171" y1="145.794" x2="273.643" y2="186.5" gradientUnits="userSpaceOnUse">
<stop stop-opacity="0"/>
<stop offset="0.99"/>
</linearGradient>
<linearGradient id="paint20_linear_706_102" x1="200.352" y1="129.225" x2="149.28" y2="144.153" gradientUnits="userSpaceOnUse">
<stop stop-color="#ECC4D7"/>
<stop offset="0.42" stop-color="#EFD4D1"/>
<stop offset="1" stop-color="#F2EAC9"/>
</linearGradient>
</defs>
</svg>
